<svg width="40" height="40" viewBox="0 0 40 40" fill="none" xmlns="http://www.w3.org/2000/svg">
<g id="1564524_adress_gps_location_pin_position_icon 1" clip-path="url(#clip0_5_58)">
<g id="icons">
<path id="pin" d="M20 0C11.6667 0 5 6.66667 5 15C5 25.3333 10.6667 34.5 19.1667 39.8333C19.6667 40.1667 20.3333 40.1667 21 39.8333C29.3333 34.3333 35 25.3333 35 15C35 6.66667 28.3333 0 20 0ZM20 21.6667C16.3333 21.6667 13.3333 18.6667 13.3333 15C13.3333 11.3333 16.3333 8.33333 20 8.33333C23.6667 8.33333 26.6667 11.3333 26.6667 15C26.6667 18.6667 23.6667 21.6667 20 21.6667Z" fill="#CB8F72"/>
</g>
</g>
<defs>
<clipPath id="clip0_5_58">
<rect width="40" height="40" fill="white"/>
</clipPath>
</defs>
</svg>
