<svg width="40" height="40" viewBox="0 0 40 40" fill="none" xmlns="http://www.w3.org/2000/svg">
<g id="Frame">
<path id="Vector" d="M35.7143 27.6786C35.7143 28.0804 35.6399 28.6049 35.4911 29.2523C35.3423 29.8996 35.1861 30.4093 35.0224 30.7813C34.7099 31.5253 33.8021 32.314 32.2992 33.1474C30.9004 33.9063 29.5164 34.2857 28.1474 34.2857C27.7456 34.2857 27.355 34.2597 26.9755 34.2076C26.596 34.1555 26.1682 34.0625 25.692 33.9286C25.2158 33.7947 24.8624 33.6868 24.6318 33.6049C24.4011 33.5231 23.9881 33.3706 23.3929 33.1474C22.7977 32.9241 22.4331 32.7902 22.2992 32.7456C20.8408 32.2247 19.5387 31.6072 18.3929 30.8929C16.4881 29.7173 14.5201 28.1139 12.4889 26.0826C10.4576 24.0514 8.85422 22.0834 7.67862 20.1786C6.96434 19.0328 6.34678 17.7307 5.82595 16.2724C5.7813 16.1384 5.64737 15.7738 5.42416 15.1786C5.20095 14.5834 5.04842 14.1704 4.96657 13.9398C4.88472 13.7091 4.77684 13.3557 4.64291 12.8795C4.50898 12.4033 4.41597 11.9755 4.36389 11.596C4.31181 11.2166 4.28577 10.8259 4.28577 10.4241C4.28577 9.05509 4.66523 7.67117 5.42416 6.27236C6.25749 4.76938 7.04618 3.86164 7.79023 3.54914C8.16225 3.38545 8.67193 3.2292 9.31925 3.08039C9.96657 2.93158 10.4911 2.85718 10.8929 2.85718C11.1012 2.85718 11.2575 2.8795 11.3617 2.92414C11.6295 3.01343 12.0239 3.5789 12.5447 4.62057C12.7084 4.90331 12.9316 5.30509 13.2143 5.82593C13.4971 6.34676 13.7575 6.81923 13.9956 7.24334C14.2337 7.66745 14.4643 8.06551 14.6876 8.43753C14.7322 8.49706 14.8624 8.68307 15.0782 8.99557C15.294 9.30807 15.4539 9.57221 15.5581 9.78798C15.6623 10.0038 15.7143 10.2158 15.7143 10.4241C15.7143 10.7218 15.5023 11.0938 15.0782 11.5402C14.6541 11.9866 14.1928 12.3959 13.6942 12.7679C13.1957 13.1399 12.7344 13.5343 12.3103 13.9509C11.8862 14.3676 11.6742 14.7099 11.6742 14.9777C11.6742 15.1116 11.7114 15.2791 11.7858 15.4799C11.8602 15.6808 11.9234 15.8334 11.9755 15.9375C12.0276 16.0417 12.1317 16.2203 12.288 16.4732C12.4442 16.7262 12.5298 16.8676 12.5447 16.8974C13.6756 18.936 14.9703 20.6846 16.4286 22.1429C17.887 23.6012 19.6355 24.8959 21.6742 26.0268C21.7039 26.0417 21.8453 26.1273 22.0983 26.2835C22.3512 26.4398 22.5298 26.5439 22.634 26.596C22.7381 26.6481 22.8907 26.7113 23.0916 26.7857C23.2925 26.8602 23.4599 26.8974 23.5938 26.8974C23.8617 26.8974 24.2039 26.6853 24.6206 26.2612C25.0373 25.8371 25.4316 25.3758 25.8036 24.8773C26.1756 24.3788 26.5849 23.9174 27.0313 23.4933C27.4777 23.0692 27.8498 22.8572 28.1474 22.8572C28.3557 22.8572 28.5678 22.9093 28.7835 23.0134C28.9993 23.1176 29.2634 23.2776 29.5759 23.4933C29.8884 23.7091 30.0745 23.8393 30.134 23.884C30.506 24.1072 30.9041 24.3378 31.3282 24.5759C31.7523 24.814 32.2248 25.0744 32.7456 25.3572C33.2664 25.6399 33.6682 25.8631 33.9509 26.0268C34.9926 26.5477 35.5581 26.942 35.6474 27.2099C35.692 27.314 35.7143 27.4703 35.7143 27.6786Z" fill="#CB8F72"/>
</g>
</svg>
